# xmcd CD database file
#
# Track frame offsets:
#	150
#	23227
#	56720
#	107025
#	134275
#	163599
#	240127
#	264079
#
# Disc length: 3778 seconds
#
# Revision: 1
# Processed by: cddbd v1.5.1PL2 Copyright (c) Steve Scherf et al.
# Submitted via: CDex 1.70beta2
#
DISCID=5c0ec008
DTITLE=Ulrich Gumpert Workshop Band - Smell a Rat
DYEAR=2006
DGENRE=Jazz
TTITLE0=Blues for I. M.
TTITLE1=Baryschna/The Fugitive
TTITLE2=Marcia Funebre
TTITLE3=Smell a Rat
TTITLE4=Ode an Marul
TTITLE5=The Pursuit
TTITLE6=Nicht gewollt
TTITLE7=Hymne
EXTD=YEAR: 2006
EXTT0=
EXTT1=
EXTT2=
EXTT3=
EXTT4=
EXTT5=
EXTT6=
EXTT7=
PLAYORDER=
